<svg xmlns="http://www.w3.org/2000/svg" width="22.981" height="21.589" viewBox="0 0 22.981 21.589">
  <path id="booking_icon" data-name="booking icon" d="M18.255,15.5H4.726a4.726,4.726,0,1,0,0,9.451H8.167v3.818L8,28.629a2.187,2.187,0,0,0-2.9.126,1.89,1.89,0,0,0,.123,2.813l2.942,2.469v2.379a.673.673,0,0,0,.673.673h8.079a.673.673,0,0,0,.673-.673V28.85a2.023,2.023,0,0,0-1.77-2L12.206,26.4V24.951h6.049a4.726,4.726,0,1,0,0-9.451ZM9.513,35.743V34.4h6.733v1.347Zm6.143-7.56a.674.674,0,0,1,.59.668v4.2H9.085L6.09,30.537a.545.545,0,0,1-.036-.83.836.836,0,0,1,1.079-.047l1.274,1.069a.674.674,0,0,0,1.106-.516V21.6a.673.673,0,0,1,1.347,0V26.99a.673.673,0,0,0,.59.668Zm2.6-4.577H12.206v-2a2.02,2.02,0,1,0-4.04,0v2H4.726a3.379,3.379,0,0,1,0-6.758H18.255a3.379,3.379,0,0,1,0,6.758Z" transform="translate(0 -15.5)" fill="#fff"/>
</svg>
