<svg id="direction" xmlns="http://www.w3.org/2000/svg" width="13.576" height="13.576" viewBox="0 0 13.576 13.576">
  <g id="Group_135" data-name="Group 135" transform="translate(0 0)">
    <path id="Path_145" data-name="Path 145" d="M13.381,6.308h0L7.272.2a.676.676,0,0,0-.957,0L.206,6.308a.68.68,0,0,0,0,.961l6.109,6.106v0a.68.68,0,0,0,.961,0l6.109-6.109A.677.677,0,0,0,13.381,6.308ZM8.151,8.483v-1.7H5.436V8.823H4.078V6.108a.676.676,0,0,1,.679-.679H8.151v-1.7l2.376,2.376Z" transform="translate(-0.007 0)" fill="#02645e"/>
  </g>
</svg>
