<svg id="location_icon" data-name="location icon" xmlns="http://www.w3.org/2000/svg" width="20.328" height="20.328" viewBox="0 0 20.328 20.328">
  <g id="Group_130" data-name="Group 130" transform="translate(0 0)">
    <g id="Group_129" data-name="Group 129">
      <path id="Path_120" data-name="Path 120" d="M8.952,0A8.952,8.952,0,1,0,17.9,8.952,8.962,8.962,0,0,0,8.952,0Zm0,16.251a7.3,7.3,0,1,1,7.3-7.3A7.308,7.308,0,0,1,8.952,16.251Z" transform="translate(0 0)" fill="#fff"/>
    </g>
  </g>
  <g id="Group_132" data-name="Group 132" transform="translate(13.937 13.937)">
    <g id="Group_131" data-name="Group 131">
      <path id="Path_121" data-name="Path 121" d="M357.194,356.025l-4.738-4.738a.826.826,0,0,0-1.168,1.168l4.738,4.738a.826.826,0,0,0,1.168-1.168Z" transform="translate(-351.046 -351.046)" fill="#fff"/>
    </g>
  </g>
</svg>
