<svg xmlns="http://www.w3.org/2000/svg" width="153.921" height="43.053" viewBox="0 0 153.921 43.053">
  <g id="logo_green" data-name="logo green" transform="translate(-104 -111.517)">
    <g id="Group_1055" data-name="Group 1055" transform="translate(200.786 113.104)">
      <path id="Path_1484" data-name="Path 1484" d="M446.652,518.13v8.479h-1.6V518.13h-3.478V516.7h8.566v1.434Z" transform="translate(-441.576 -516.696)" fill="#02645e"/>
      <path id="Path_1485" data-name="Path 1485" d="M456.595,526.609l-3.537-3.95h-1.434v3.95H450.04V516.7h4.66a3.616,3.616,0,0,1,2.465.821,2.97,2.97,0,0,1,.088,4.247,3.435,3.435,0,0,1-2.271.88l3.578,3.965Zm-1.895-5.385a1.973,1.973,0,0,0,1.316-.422,1.377,1.377,0,0,0,.505-1.117,1.4,1.4,0,0,0-.505-1.125,1.951,1.951,0,0,0-1.316-.43h-3.076v3.093Z" transform="translate(-437.002 -516.696)" fill="#02645e"/>
      <path id="Path_1486" data-name="Path 1486" d="M458.416,526.609V516.7H460v9.913Z" transform="translate(-432.475 -516.696)" fill="#02645e"/>
      <path id="Path_1487" data-name="Path 1487" d="M468.979,521.562a2.025,2.025,0,0,1,1.316.71,2.354,2.354,0,0,1,.547,1.614,2.561,2.561,0,0,1-.806,1.983,3.328,3.328,0,0,1-2.331.739h-4.822V516.7H467.6a3.056,3.056,0,0,1,2.146.732,2.513,2.513,0,0,1,.8,1.946,2.191,2.191,0,0,1-.479,1.451,1.815,1.815,0,0,1-1.088.679Zm-4.513-.576h2.959a1.577,1.577,0,0,0,1.146-.422,1.457,1.457,0,0,0,.436-1.1,1.3,1.3,0,0,0-.436-1.014,1.627,1.627,0,0,0-1.131-.393h-2.975Zm3.078,4.261a1.732,1.732,0,0,0,1.228-.414,1.427,1.427,0,0,0,.445-1.094,1.375,1.375,0,0,0-.453-1.074,1.687,1.687,0,0,0-1.177-.407h-3.121v2.988Z" transform="translate(-430.061 -516.696)" fill="#02645e"/>
      <path id="Path_1488" data-name="Path 1488" d="M478.567,526.609h-7.383V516.7h7.369v1.434h-5.786v2.8h5.339v1.42h-5.339v2.825h5.8Z" transform="translate(-425.575 -516.696)" fill="#02645e"/>
    </g>
    <path id="Path_1489" data-name="Path 1489" d="M401.979,554.264A14.832,14.832,0,0,1,395,556.253q-4.938,0-7.727-2.657t-2.788-8.019V534.467h-5.743v-5.794h5.743V519.5h7.081v9.176h8.747v5.794h-8.747v10.57q0,4.612,3.917,4.615a9.589,9.589,0,0,0,4.453-1.289Z" transform="translate(-274.745 -402.078)" fill="#02645e"/>
    <path id="Path_1490" data-name="Path 1490" d="M433.562,530.744v5.794h-8.1v20.979h-7.084V536.537H414.3v-5.794h4.076V525.8a9.7,9.7,0,0,1,2.9-7.4,10.714,10.714,0,0,1,7.673-2.736,11.246,11.246,0,0,1,4.775,1.018l-1.61,5.743a8.441,8.441,0,0,0-2.683-.484,4.064,4.064,0,0,0-2.87,1.018,3.689,3.689,0,0,0-1.1,2.842v4.94Z" transform="translate(-255.53 -404.149)" fill="#02645e"/>
    <path id="Path_1491" data-name="Path 1491" d="M446.8,530.744v5.794h-8.1v20.979h-7.083V536.537h-4.078v-5.794h4.078V525.8a9.7,9.7,0,0,1,2.9-7.4,10.714,10.714,0,0,1,7.673-2.736,11.24,11.24,0,0,1,4.775,1.018l-1.608,5.743a8.441,8.441,0,0,0-2.683-.484,4.065,4.065,0,0,0-2.871,1.018,3.689,3.689,0,0,0-1.1,2.842v4.94Z" transform="translate(-248.377 -404.149)" fill="#02645e"/>
    <path id="Path_1492" data-name="Path 1492" d="M467.037,541.026H446.648a7.925,7.925,0,0,0,2.389,4.535,6.19,6.19,0,0,0,4.318,1.69,7.152,7.152,0,0,0,6.655-3.541l6.331,1.342a12.924,12.924,0,0,1-5.1,6.174,14.7,14.7,0,0,1-7.888,2.092,13.269,13.269,0,0,1-9.765-3.973,15.068,15.068,0,0,1,.026-20.415,13.381,13.381,0,0,1,9.846-4,13.051,13.051,0,0,1,9.418,3.836,13.887,13.887,0,0,1,4.156,9.85Zm-17.679-8.637a5.994,5.994,0,0,0-2.5,3.651h12.932a6.316,6.316,0,0,0-2.36-3.7,6.626,6.626,0,0,0-3.971-1.239A7.2,7.2,0,0,0,449.358,532.389Z" transform="translate(-241.847 -399.142)" fill="#02645e"/>
    <path id="Path_1493" data-name="Path 1493" d="M485.682,541.026H465.293a7.923,7.923,0,0,0,2.388,4.535,6.191,6.191,0,0,0,4.319,1.69,7.152,7.152,0,0,0,6.655-3.541l6.33,1.342a12.912,12.912,0,0,1-5.1,6.174A14.708,14.708,0,0,1,472,553.317a13.269,13.269,0,0,1-9.765-3.973,15.07,15.07,0,0,1,.025-20.415,13.387,13.387,0,0,1,9.848-4,13.05,13.05,0,0,1,9.417,3.836,13.882,13.882,0,0,1,4.158,9.85ZM468,532.389a5.994,5.994,0,0,0-2.5,3.651h12.932a6.315,6.315,0,0,0-2.36-3.7,6.623,6.623,0,0,0-3.971-1.239A7.2,7.2,0,0,0,468,532.389Z" transform="translate(-231.771 -399.142)" fill="#02645e"/>
    <g id="Group_1059" data-name="Group 1059" transform="translate(126.507 125.794)">
      <g id="Group_1058" data-name="Group 1058">
        <g id="Group_1056" data-name="Group 1056">
          <path id="Path_1494" data-name="Path 1494" d="M407.391,553a14.034,14.034,0,1,1,14.033-14.033A14.05,14.05,0,0,1,407.391,553Zm0-26.383a12.349,12.349,0,1,0,12.348,12.349A12.364,12.364,0,0,0,407.391,526.619Z" transform="translate(-393.356 -524.934)" fill="#02645e"/>
        </g>
        <g id="Group_1057" data-name="Group 1057" transform="translate(26.383 11.652)">
          <path id="Path_1495" data-name="Path 1495" d="M417.646,537.873h-7.163V532.5h7.163a1.631,1.631,0,0,1,1.525,1.716v1.943A1.63,1.63,0,0,1,417.646,537.873Zm-5.667-1.685h5.667a.029.029,0,0,0,.028-.031v-1.943a.029.029,0,0,0-.028-.031h-5.667Z" transform="translate(-410.483 -532.498)" fill="#02645e"/>
        </g>
        <circle id="Ellipse_74" data-name="Ellipse 74" cx="10.603" cy="10.603" r="10.603" transform="translate(3.431 3.431)" fill="#02645e"/>
        <path id="Path_1496" data-name="Path 1496" d="M407.949,536.256l-4.3-.293-.43-6.3a.413.413,0,0,0-.824,0l-.421,6.182-.689-.046a.326.326,0,0,0-.25.088.336.336,0,0,0-.1.243v.907a.331.331,0,0,0,.333.333l.022,0,.587-.04-.042.621a.411.411,0,0,0,.411.441h1.131a.413.413,0,0,0,.413-.413c0-.02-.052-.775-.052-.775l4.213-.288a.332.332,0,0,0,0-.662Z" transform="translate(-389.261 -522.584)" fill="#fff"/>
      </g>
    </g>
    <g id="Group_1060" data-name="Group 1060" transform="translate(253.188 149.95)">
      <path id="Path_1497" data-name="Path 1497" d="M478.046,543.288h-.163l-.015,0c-.076-.006-.153-.009-.228-.02a2.358,2.358,0,0,1-1.7-1.074,2.256,2.256,0,0,1-.345-1.066l0-.071v-.166l0-.017a2.424,2.424,0,0,1,.048-.38,2.233,2.233,0,0,1,.5-1,2.316,2.316,0,0,1,1-.679,2.421,2.421,0,0,1,.661-.134l.08,0h.18l.017,0c.072.006.145.011.217.018a2.3,2.3,0,0,1,.518.125,2.273,2.273,0,0,1,1.2,1,2.224,2.224,0,0,1,.307,1l.006.072v.169l0,.015c0,.052-.008.106-.012.159a2.184,2.184,0,0,1-.128.544,2.284,2.284,0,0,1-1.243,1.314,2.333,2.333,0,0,1-.816.2ZM478,542.81a1.626,1.626,0,0,0,.407-.048,1.67,1.67,0,0,0,.946-.622,1.839,1.839,0,0,0,.37-.923,2.025,2.025,0,0,0-.008-.538,1.893,1.893,0,0,0-.223-.652,1.736,1.736,0,0,0-1.735-.886,1.617,1.617,0,0,0-.425.1,1.734,1.734,0,0,0-.875.738,1.889,1.889,0,0,0-.257,1.232,1.811,1.811,0,0,0,.163.573,1.757,1.757,0,0,0,.838.847A1.805,1.805,0,0,0,478,542.81Z" transform="translate(-475.594 -538.668)" fill="#02645e"/>
      <path id="Path_1498" data-name="Path 1498" d="M478.558,541.771h-.017c-.176,0-.351,0-.527,0a.033.033,0,0,1-.028-.014.548.548,0,0,1-.071-.166c-.037-.139-.072-.277-.108-.417a.464.464,0,0,0-.072-.165.361.361,0,0,0-.222-.134.776.776,0,0,0-.168-.017c-.083,0-.166,0-.248,0h-.012v.912h-.533v-2.3l.083-.012.294-.034c.148-.015.3-.022.444-.025a3.1,3.1,0,0,1,.357.014,1.059,1.059,0,0,1,.393.108.593.593,0,0,1,.3.739.536.536,0,0,1-.219.256.873.873,0,0,1-.21.1c-.009,0-.015.006-.015.018a.02.02,0,0,0,.015.02.5.5,0,0,1,.294.265,1.266,1.266,0,0,1,.1.316,2.7,2.7,0,0,0,.119.436.935.935,0,0,0,.039.089Zm-1.459-1.294h.006c.128,0,.254.006.38-.008a.687.687,0,0,0,.22-.06.29.29,0,0,0,.176-.325.3.3,0,0,0-.188-.242.665.665,0,0,0-.256-.052,1.607,1.607,0,0,0-.257.011l-.082.015Z" transform="translate(-475.076 -538.274)" fill="#02645e"/>
    </g>
  </g>
</svg>
