<svg xmlns="http://www.w3.org/2000/svg" width="162.76" height="45.107" viewBox="0 0 162.76 45.107">
  <g id="logo_white" data-name="logo white" transform="translate(-378.745 -515.666)">
    <g id="Group_1062" data-name="Group 1062" transform="translate(481.09 517.344)">
      <path id="Path_1499" data-name="Path 1499" d="M446.943,518.213v8.965h-1.689v-8.965h-3.678V516.7h9.058v1.517Z" transform="translate(-441.576 -516.696)" fill="#fff"/>
      <path id="Path_1500" data-name="Path 1500" d="M456.971,527.178,453.231,523h-1.516v4.176H450.04V516.7h4.927a3.825,3.825,0,0,1,2.606.868,3.141,3.141,0,0,1,.093,4.491,3.633,3.633,0,0,1-2.4.93l3.784,4.193Zm-2-5.695a2.086,2.086,0,0,0,1.391-.446,1.457,1.457,0,0,0,.534-1.181,1.484,1.484,0,0,0-.534-1.189,2.064,2.064,0,0,0-1.391-.454h-3.253v3.271Z" transform="translate(-436.253 -516.696)" fill="#fff"/>
      <path id="Path_1501" data-name="Path 1501" d="M458.416,527.178V516.7h1.675v10.482Z" transform="translate(-430.985 -516.696)" fill="#fff"/>
      <path id="Path_1502" data-name="Path 1502" d="M469.33,521.842a2.14,2.14,0,0,1,1.391.751,2.489,2.489,0,0,1,.578,1.707,2.708,2.708,0,0,1-.852,2.1,3.519,3.519,0,0,1-2.465.782h-5.1V516.7h4.989a3.232,3.232,0,0,1,2.269.774,2.657,2.657,0,0,1,.844,2.057,2.317,2.317,0,0,1-.507,1.534,1.919,1.919,0,0,1-1.15.718Zm-4.773-.609h3.129a1.668,1.668,0,0,0,1.212-.446,1.541,1.541,0,0,0,.461-1.163,1.372,1.372,0,0,0-.461-1.072,1.72,1.72,0,0,0-1.2-.415h-3.145Zm3.255,4.505a1.831,1.831,0,0,0,1.3-.438,1.509,1.509,0,0,0,.471-1.157,1.454,1.454,0,0,0-.479-1.135,1.785,1.785,0,0,0-1.244-.43h-3.3v3.16Z" transform="translate(-428.176 -516.696)" fill="#fff"/>
      <path id="Path_1503" data-name="Path 1503" d="M478.991,527.178h-7.807V516.7h7.793v1.517h-6.118v2.958H478.5v1.5h-5.646v2.987h6.133Z" transform="translate(-422.956 -516.696)" fill="#fff"/>
    </g>
    <path id="Path_1504" data-name="Path 1504" d="M403.314,556.261a15.683,15.683,0,0,1-7.377,2.1q-5.221,0-8.171-2.81t-2.948-8.48V535.327h-6.073V529.2h6.073v-9.7h7.488v9.7h9.249v6.126h-9.249V546.5q0,4.877,4.142,4.88a10.139,10.139,0,0,0,4.709-1.363Z" transform="translate(0 2.409)" fill="#fff"/>
    <path id="Path_1505" data-name="Path 1505" d="M434.669,531.609v6.126H426.1V559.92h-7.491V537.736H414.3v-6.126h4.31v-5.224a10.256,10.256,0,0,1,3.064-7.827,11.329,11.329,0,0,1,8.113-2.893,11.893,11.893,0,0,1,5.05,1.077l-1.7,6.073a8.923,8.923,0,0,0-2.838-.511,4.3,4.3,0,0,0-3.035,1.077,3.9,3.9,0,0,0-1.161,3.005v5.224Z" transform="translate(22.361)" fill="#fff"/>
    <path id="Path_1506" data-name="Path 1506" d="M447.906,531.609v6.126h-8.568V559.92h-7.49V537.736h-4.312v-6.126h4.312v-5.224a10.256,10.256,0,0,1,3.062-7.827,11.329,11.329,0,0,1,8.114-2.893,11.888,11.888,0,0,1,5.049,1.077l-1.7,6.073a8.923,8.923,0,0,0-2.838-.511,4.3,4.3,0,0,0-3.036,1.077,3.9,3.9,0,0,0-1.161,3.005v5.224Z" transform="translate(30.685)" fill="#fff"/>
    <path id="Path_1507" data-name="Path 1507" d="M468.612,541.95h-21.56a8.38,8.38,0,0,0,2.526,4.8,6.545,6.545,0,0,0,4.566,1.787,7.563,7.563,0,0,0,7.037-3.745l6.695,1.419a13.666,13.666,0,0,1-5.39,6.529,15.549,15.549,0,0,1-8.342,2.212,14.031,14.031,0,0,1-10.326-4.2,15.933,15.933,0,0,1,.028-21.588,14.149,14.149,0,0,1,10.412-4.229,13.8,13.8,0,0,1,9.959,4.056,14.684,14.684,0,0,1,4.395,10.415Zm-18.695-9.133a6.338,6.338,0,0,0-2.639,3.861h13.674a6.678,6.678,0,0,0-2.5-3.914,7.007,7.007,0,0,0-4.2-1.31A7.613,7.613,0,0,0,449.917,532.817Z" transform="translate(38.283 5.826)" fill="#fff"/>
    <path id="Path_1508" data-name="Path 1508" d="M487.257,541.95H465.7a8.378,8.378,0,0,0,2.525,4.8,6.546,6.546,0,0,0,4.567,1.787,7.563,7.563,0,0,0,7.037-3.745l6.693,1.419a13.654,13.654,0,0,1-5.388,6.529,15.553,15.553,0,0,1-8.342,2.212,14.031,14.031,0,0,1-10.326-4.2,15.935,15.935,0,0,1,.026-21.588A14.156,14.156,0,0,1,472.9,524.93a13.8,13.8,0,0,1,9.957,4.056,14.679,14.679,0,0,1,4.4,10.415Zm-18.695-9.133a6.338,6.338,0,0,0-2.639,3.861H479.6a6.678,6.678,0,0,0-2.5-3.914,7,7,0,0,0-4.2-1.31A7.614,7.614,0,0,0,468.562,532.817Z" transform="translate(50.009 5.826)" fill="#fff"/>
    <g id="Group_1063" data-name="Group 1063" transform="translate(402.545 530.763)">
      <path id="Path_1509" data-name="Path 1509" d="M408.2,524.934a14.84,14.84,0,1,0,14.839,14.841A14.857,14.857,0,0,0,408.2,524.934Zm0,27.9a13.058,13.058,0,1,1,13.057-13.057A13.072,13.072,0,0,1,408.2,552.832Z" transform="translate(-393.356 -524.934)" fill="#fff"/>
    </g>
    <g id="Group_1064" data-name="Group 1064" transform="translate(430.443 543.083)">
      <path id="Path_1510" data-name="Path 1510" d="M418.057,538.181h-7.574V532.5h7.574a1.725,1.725,0,0,1,1.613,1.815v2.054A1.724,1.724,0,0,1,418.057,538.181Zm-5.993-1.782h5.993a.031.031,0,0,0,.029-.033v-2.054a.031.031,0,0,0-.029-.033h-5.993Z" transform="translate(-410.483 -532.498)" fill="#fff"/>
    </g>
    <path id="Path_1511" data-name="Path 1511" d="M406.8,527.161a11.212,11.212,0,1,0,11.212,11.213A11.226,11.226,0,0,0,406.8,527.161Zm4.921,11.529-4.455.3s.055.8.055.819a.437.437,0,0,1-.437.437h-1.2a.435.435,0,0,1-.435-.466l.044-.656-.621.042-.023,0a.35.35,0,0,1-.352-.352v-.959a.356.356,0,0,1,.111-.257.345.345,0,0,1,.264-.093l.728.049.445-6.537a.437.437,0,0,1,.871,0l.454,6.657,4.545.309a.351.351,0,0,1,0,.7Z" transform="translate(10.589 7.229)" fill="#fff"/>
    <g id="Group_1065" data-name="Group 1065" transform="translate(536.501 553.134)">
      <path id="Path_1512" data-name="Path 1512" d="M478.187,543.553h-.173l-.016,0c-.08-.006-.161-.01-.241-.021a2.494,2.494,0,0,1-1.793-1.135,2.385,2.385,0,0,1-.365-1.127l0-.075v-.176l0-.018a2.571,2.571,0,0,1,.05-.4,2.362,2.362,0,0,1,.528-1.062,2.45,2.45,0,0,1,1.057-.718,2.562,2.562,0,0,1,.7-.142l.085,0h.191l.018,0c.077.006.153.011.23.02a2.439,2.439,0,0,1,.547.132,2.4,2.4,0,0,1,1.267,1.054,2.352,2.352,0,0,1,.324,1.06l.006.077v.179l0,.016c0,.055-.008.112-.013.168a2.312,2.312,0,0,1-.135.575,2.415,2.415,0,0,1-1.315,1.39,2.468,2.468,0,0,1-.863.207Zm-.049-.5a1.72,1.72,0,0,0,.43-.051,1.766,1.766,0,0,0,1-.658,1.944,1.944,0,0,0,.391-.976,2.142,2.142,0,0,0-.008-.568,2,2,0,0,0-.236-.689,1.836,1.836,0,0,0-1.834-.937,1.71,1.71,0,0,0-.45.109,1.834,1.834,0,0,0-.925.78,2,2,0,0,0-.272,1.3,1.915,1.915,0,0,0,.173.606,1.857,1.857,0,0,0,.886.9A1.908,1.908,0,0,0,478.138,543.048Z" transform="translate(-475.594 -538.668)" fill="#fff"/>
      <path id="Path_1513" data-name="Path 1513" d="M478.673,541.907h-.018c-.186,0-.371,0-.557,0a.035.035,0,0,1-.029-.015.578.578,0,0,1-.075-.176c-.039-.147-.077-.293-.114-.441a.493.493,0,0,0-.077-.174.381.381,0,0,0-.235-.142.823.823,0,0,0-.178-.018c-.088,0-.176,0-.262,0h-.013v.964h-.564v-2.434c.029,0,.059-.01.088-.013l.311-.036c.156-.016.313-.023.469-.026a3.246,3.246,0,0,1,.378.015,1.12,1.12,0,0,1,.415.114.627.627,0,0,1,.319.782.567.567,0,0,1-.231.27.922.922,0,0,1-.222.106c-.01,0-.016.006-.016.019a.021.021,0,0,0,.016.021.524.524,0,0,1,.311.28,1.34,1.34,0,0,1,.111.334,2.844,2.844,0,0,0,.125.461.953.953,0,0,0,.041.094Zm-1.543-1.368.006,0c.135,0,.269.007.4-.008a.725.725,0,0,0,.233-.063.307.307,0,0,0,.186-.344.32.32,0,0,0-.2-.256.7.7,0,0,0-.27-.055,1.7,1.7,0,0,0-.272.011l-.086.016Z" transform="translate(-474.992 -538.21)" fill="#fff"/>
    </g>
  </g>
</svg>
