<svg xmlns="http://www.w3.org/2000/svg" width="14.336" height="13.386" viewBox="0 0 14.336 13.386">
  <g id="map_view" data-name="map view" transform="translate(0)">
    <path id="Path_122" data-name="Path 122" d="M14,19.673a45.381,45.381,0,0,0-4.659-.9c-.035.006-.467.093-1.473.294a3.108,3.108,0,0,0-5.876,0L.5,18.777a.42.42,0,0,0-.5.412v9.856a.42.42,0,0,0,.338.412c4.823.959,4.507.9,4.539.9.1.012-.212.064,4.531-.884l4.426.88a.42.42,0,0,0,.5-.412V20.085A.42.42,0,0,0,14,19.673Zm-9.07-1.856A2.271,2.271,0,0,1,7.2,20.085c0,1.055-1.688,3.734-2.268,4.62-.579-.885-2.268-3.564-2.268-4.62a2.271,2.271,0,0,1,2.268-2.268ZM.84,19.7l.986.2c0,.062-.006.125-.006.188a8.4,8.4,0,0,0,1.4,3.456c.55.949,1.093,1.763,1.287,2.05V29.43L.84,28.7Zm4.508,5.89c.194-.287.737-1.1,1.287-2.05a8.4,8.4,0,0,0,1.4-3.455c0-.065,0-.129-.006-.192l.958-.192v9l-3.64.728ZM13.5,29.43,9.828,28.7v-9l3.668.729Z" transform="translate(0 -16.977)" fill="#fff"/>
    <path id="Path_123" data-name="Path 123" d="M130.316,83.609A1.316,1.316,0,1,0,129,82.293,1.318,1.318,0,0,0,130.316,83.609Zm0-1.792a.476.476,0,1,1-.476.476A.477.477,0,0,1,130.316,81.817Z" transform="translate(-125.388 -79.185)" fill="#fff"/>
  </g>
</svg>
