<svg id="membership" xmlns="http://www.w3.org/2000/svg" width="23.221" height="17.234" viewBox="0 0 23.221 17.234">
  <path id="Path_134" data-name="Path 134" d="M20.953,0H8.617a.454.454,0,1,0,0,.907H20.953a1.362,1.362,0,0,1,1.361,1.361v12.7a1.362,1.362,0,0,1-1.361,1.361H2.268A1.362,1.362,0,0,1,.907,14.966V2.268A1.362,1.362,0,0,1,2.268.907H4.989a.454.454,0,1,0,0-.907H2.268A2.27,2.27,0,0,0,0,2.268v12.7a2.27,2.27,0,0,0,2.268,2.268H20.953a2.27,2.27,0,0,0,2.268-2.268V2.268A2.27,2.27,0,0,0,20.953,0Zm0,0" fill="#fff"/>
  <path id="Path_135" data-name="Path 135" d="M58.354,52a4.354,4.354,0,1,0,4.354,4.354A4.359,4.359,0,0,0,58.354,52Zm-1.969,7.18a2.134,2.134,0,0,1,3.939,0,3.436,3.436,0,0,1-3.939,0Zm1.144-3.045v-.17a.825.825,0,1,1,1.65,0v.17a.825.825,0,0,1-1.65,0Zm3.49,2.4A3.045,3.045,0,0,0,59.67,57.26a1.724,1.724,0,0,0,.417-1.125v-.17a1.732,1.732,0,1,0-3.465,0v.17a1.724,1.724,0,0,0,.417,1.125,3.044,3.044,0,0,0-1.349,1.276,3.447,3.447,0,1,1,5.33,0Zm0,0" transform="translate(-51.551 -49.642)" fill="#fff"/>
  <path id="Path_136" data-name="Path 136" d="M294.454,104.535h6.531a.454.454,0,0,0,.454-.454v-3.628a.453.453,0,0,0-.454-.454h-6.531a.454.454,0,0,0-.454.454v3.628A.454.454,0,0,0,294.454,104.535Zm.454-3.628h5.624v2.721h-5.624Zm0,0" transform="translate(-280.666 -95.465)" fill="#fff"/>
  <path id="Path_137" data-name="Path 137" d="M294.454,220.907h6.531a.454.454,0,0,0,0-.907h-6.531a.454.454,0,1,0,0,.907Zm0,0" transform="translate(-280.666 -210.022)" fill="#fff"/>
  <path id="Path_138" data-name="Path 138" d="M294.133,260.774a.453.453,0,1,0-.133-.321A.457.457,0,0,0,294.133,260.774Zm0,0" transform="translate(-280.667 -248.208)" fill="#fff"/>
  <path id="Path_139" data-name="Path 139" d="M334.133,260.133a.453.453,0,1,0,.321-.133A.457.457,0,0,0,334.133,260.133Zm0,0" transform="translate(-318.852 -248.209)" fill="#fff"/>
  <path id="Path_140" data-name="Path 140" d="M377.356,260h-2.9a.454.454,0,1,0,0,.907h2.9a.454.454,0,1,0,0-.907Zm0,0" transform="translate(-357.038 -248.208)" fill="#fff"/>
  <path id="Path_141" data-name="Path 141" d="M84.833,264.536a.454.454,0,0,0-.454-.454H78.786a.454.454,0,1,0,0,.907h5.594A.454.454,0,0,0,84.833,264.536Zm0,0" transform="translate(-74.779 -252.105)" fill="#fff"/>
  <path id="Path_142" data-name="Path 142" d="M94.786,304.082a.454.454,0,1,0,0,.907h4.142a.454.454,0,1,0,0-.907Zm0,0" transform="translate(-90.054 -290.291)" fill="#fff"/>
  <path id="Path_143" data-name="Path 143" d="M140.454.907a.454.454,0,0,0,.454-.454.454.454,0,1,0-.774.321A.457.457,0,0,0,140.454.907Zm0,0" transform="translate(-133.651)" fill="#fff"/>
</svg>
