<svg xmlns="http://www.w3.org/2000/svg" width="17.902" height="17.902" viewBox="0 0 17.902 17.902">
  <g id="qrcode" transform="translate(0)">
    <path id="Path_162" data-name="Path 162" d="M373.03,0h-2.505a.524.524,0,1,0,0,1.049h2.505a.887.887,0,0,1,.886.886V4.44a.524.524,0,0,0,1.049,0V1.935A1.937,1.937,0,0,0,373.03,0Z" transform="translate(-357.063)" fill="#fff"/>
    <path id="Path_163" data-name="Path 163" d="M.524,4.965a.524.524,0,0,0,.524-.524V1.935a.887.887,0,0,1,.886-.886H4.44A.524.524,0,0,0,4.44,0H1.935A1.937,1.937,0,0,0,0,1.935V4.44a.524.524,0,0,0,.524.524Z" transform="translate(0 0)" fill="#fff"/>
    <path id="Path_164" data-name="Path 164" d="M4.44,373.916H1.935a.887.887,0,0,1-.886-.886v-2.505a.524.524,0,1,0-1.049,0v2.505a1.937,1.937,0,0,0,1.935,1.935H4.44a.524.524,0,0,0,0-1.049Z" transform="translate(0 -357.063)" fill="#fff"/>
    <path id="Path_165" data-name="Path 165" d="M374.44,370a.525.525,0,0,0-.524.525v2.505a.887.887,0,0,1-.886.886h-2.505a.524.524,0,1,0,0,1.049h2.505a1.937,1.937,0,0,0,1.935-1.935v-2.505A.525.525,0,0,0,374.44,370Z" transform="translate(-357.063 -357.063)" fill="#fff"/>
    <path id="Path_166" data-name="Path 166" d="M327.167,81.049h1.663a.412.412,0,0,1,.412.412v1.663a.524.524,0,0,0,1.049,0V81.461A1.463,1.463,0,0,0,328.831,80h-1.663a.524.524,0,1,0,0,1.049Z" transform="translate(-315.222 -77.203)" fill="#fff"/>
    <path id="Path_167" data-name="Path 167" d="M81,81.461v1.663a.524.524,0,1,0,1.049,0V81.461a.412.412,0,0,1,.412-.412h1.663a.524.524,0,0,0,0-1.049H82.461A1.463,1.463,0,0,0,81,81.461Z" transform="translate(-78.168 -77.203)" fill="#fff"/>
    <path id="Path_168" data-name="Path 168" d="M84.124,328.244H82.461a.412.412,0,0,1-.412-.412v-1.663a.524.524,0,1,0-1.049,0v1.663a1.463,1.463,0,0,0,1.461,1.461h1.663a.524.524,0,0,0,0-1.049Z" transform="translate(-78.168 -314.258)" fill="#fff"/>
    <path id="Path_169" data-name="Path 169" d="M330.292,327.832v-1.663a.524.524,0,1,0-1.049,0v1.663a.412.412,0,0,1-.412.412h-1.663a.524.524,0,1,0,0,1.049h1.663A1.463,1.463,0,0,0,330.292,327.832Z" transform="translate(-315.222 -314.258)" fill="#fff"/>
    <path id="Path_170" data-name="Path 170" d="M1,241.524a.524.524,0,0,0,.524.524H18.307a.524.524,0,1,0,0-1.049H1.524A.524.524,0,0,0,1,241.524Z" transform="translate(-0.965 -232.574)" fill="#fff"/>
  </g>
</svg>
