<svg id="settings" xmlns="http://www.w3.org/2000/svg" width="19.328" height="19.328" viewBox="0 0 19.328 19.328">
  <g id="Group_1079" data-name="Group 1079">
    <g id="Group_1078" data-name="Group 1078">
      <path id="Path_1524" data-name="Path 1524" d="M18.067,7.563H16.494A7.111,7.111,0,0,0,15.98,6.32l1.111-1.111a1.262,1.262,0,0,0,0-1.784L15.9,2.236a1.292,1.292,0,0,0-1.783,0L13.007,3.347a7.13,7.13,0,0,0-1.243-.514V1.26A1.262,1.262,0,0,0,10.5,0H8.823a1.262,1.262,0,0,0-1.26,1.26V2.834a7.143,7.143,0,0,0-1.243.514L5.208,2.237a1.262,1.262,0,0,0-1.783,0L2.236,3.426a1.263,1.263,0,0,0,0,1.783L3.347,6.321a7.13,7.13,0,0,0-.514,1.243H1.26A1.262,1.262,0,0,0,0,8.824V10.5a1.262,1.262,0,0,0,1.26,1.26H2.834a7.143,7.143,0,0,0,.514,1.243L2.237,14.119a1.262,1.262,0,0,0,0,1.783l1.189,1.189a1.263,1.263,0,0,0,1.783,0l1.112-1.111a7.13,7.13,0,0,0,1.243.514v1.572a1.262,1.262,0,0,0,1.26,1.26H10.5a1.262,1.262,0,0,0,1.26-1.26V16.494a7.13,7.13,0,0,0,1.243-.514l1.111,1.112a1.293,1.293,0,0,0,1.783,0L17.092,15.9a1.262,1.262,0,0,0,0-1.783L15.98,13.007a7.13,7.13,0,0,0,.514-1.243h1.573a1.262,1.262,0,0,0,1.26-1.26V8.823A1.262,1.262,0,0,0,18.067,7.563Zm.42,2.941a.421.421,0,0,1-.42.42H16.176a.42.42,0,0,0-.407.315,6.316,6.316,0,0,1-.674,1.627.421.421,0,0,0,.065.511L16.5,14.713a.422.422,0,0,1,0,.595L15.307,16.5a.433.433,0,0,1-.595,0l-1.336-1.336a.421.421,0,0,0-.511-.065,6.293,6.293,0,0,1-1.626.674.42.42,0,0,0-.315.406v1.891a.421.421,0,0,1-.42.42H8.823a.421.421,0,0,1-.42-.42V16.176a.42.42,0,0,0-.315-.407A6.3,6.3,0,0,1,6.461,15.1a.416.416,0,0,0-.213-.058.42.42,0,0,0-.3.123L4.614,16.5a.421.421,0,0,1-.595,0L2.83,15.308a.421.421,0,0,1,0-.595l1.336-1.336a.42.42,0,0,0,.065-.511,6.308,6.308,0,0,1-.674-1.627.419.419,0,0,0-.406-.315H1.26a.421.421,0,0,1-.42-.42V8.823a.421.421,0,0,1,.42-.42H3.151a.42.42,0,0,0,.407-.315,6.3,6.3,0,0,1,.674-1.627.42.42,0,0,0-.065-.511L2.831,4.615a.421.421,0,0,1,0-.595L4.02,2.831a.421.421,0,0,1,.595,0L5.951,4.167a.419.419,0,0,0,.511.065,6.308,6.308,0,0,1,1.627-.674A.42.42,0,0,0,8.4,3.151V1.26a.421.421,0,0,1,.42-.42H10.5a.421.421,0,0,1,.42.42V3.151a.42.42,0,0,0,.315.407,6.293,6.293,0,0,1,1.626.674.419.419,0,0,0,.511-.065l1.336-1.336a.431.431,0,0,1,.595,0L16.5,4.02a.422.422,0,0,1,0,.595L15.161,5.951a.42.42,0,0,0-.065.511,6.31,6.31,0,0,1,.674,1.627.419.419,0,0,0,.406.315h1.891a.421.421,0,0,1,.42.42Z" fill="#fff"/>
    </g>
  </g>
  <g id="Group_1081" data-name="Group 1081" transform="translate(5.882 5.882)">
    <g id="Group_1080" data-name="Group 1080">
      <path id="Path_1525" data-name="Path 1525" d="M115.781,112a3.781,3.781,0,1,0,3.781,3.781A3.786,3.786,0,0,0,115.781,112Zm0,6.723a2.941,2.941,0,1,1,2.941-2.941A2.944,2.944,0,0,1,115.781,118.723Z" transform="translate(-112 -112)" fill="#fff"/>
    </g>
  </g>
</svg>
