<svg xmlns="http://www.w3.org/2000/svg" width="89.647" height="75.83" viewBox="0 0 89.647 75.83">
  <g id="tpffe_tribe_icon" data-name="tpffe tribe icon" transform="translate(-136 -316.506)">
    <path id="Path_48" data-name="Path 48" d="M342.621,726.152H332.266A37.769,37.769,0,1,0,332,740.669h10.619a4.4,4.4,0,0,0,4.116-4.632v-5.252A4.4,4.4,0,0,0,342.621,726.152Zm-47.61,39.8a33.363,33.363,0,1,1,33.357-33.369A33.4,33.4,0,0,1,295.011,765.954Zm47.679-29.917a.077.077,0,0,1-.069.08H332.564c.115-1.181.356-2.317.356-3.532,0-.642-.161-1.238-.195-1.88h9.9a.076.076,0,0,1,.069.08Z" transform="translate(-121.09 -378.17)" fill="#02645e"/>
    <circle id="Ellipse_3" data-name="Ellipse 3" cx="28.647" cy="28.647" r="28.647" transform="translate(145.269 325.771)" fill="#02645e"/>
    <path id="Path_52" data-name="Path 52" d="M278.795,715.093l-11.616-.791-1.158-17.017a1.115,1.115,0,0,0-2.225,0l-1.135,16.708-1.857-.127a.875.875,0,0,0-.677.241.886.886,0,0,0-.287.654v2.454a.9.9,0,0,0,.894.894h.069l1.582-.1-.115,1.674a1.145,1.145,0,0,0,.3.838,1.127,1.127,0,0,0,.814.344h3.062a1.113,1.113,0,0,0,1.113-1.113c0-.057-.149-2.087-.149-2.087l11.387-.78a.9.9,0,0,0,0-1.789Z" transform="translate(-92.306 -361.653)" fill="#fff"/>
  </g>
</svg>
